<!--?xml version="1.0" standalone="no"?-->
              <svg id="sw-js-blob-svg" viewBox="0 0 100 100" xmlns="http://www.w3.org/2000/svg" version="1.1">
                    <defs> 
                        <linearGradient id="sw-gradient" x1="0" x2="1" y1="1" y2="0">
                            <stop id="stop1" stop-color="rgba(248, 117, 55, 1)" offset="0%"></stop>
                            <stop id="stop2" stop-color="rgba(251, 168, 31, 1)" offset="100%"></stop>
                        </linearGradient>
                    </defs>
                <path fill="url(#sw-gradient)" d="M21.5,-29.3C28.7,-24.5,35.7,-19.2,39.6,-11.8C43.6,-4.3,44.4,5.2,41.7,13.6C39,21.9,32.7,29.1,25.2,32.6C17.6,36,8.8,35.7,-0.5,36.3C-9.7,36.9,-19.4,38.5,-27.3,35.2C-35.2,31.9,-41.2,23.6,-42.2,15C-43.2,6.4,-39.1,-2.5,-35.6,-11C-32,-19.5,-28.9,-27.6,-23.1,-32.8C-17.3,-38.1,-8.6,-40.6,-0.7,-39.6C7.2,-38.6,14.4,-34.2,21.5,-29.3Z" width="100%" height="100%" transform="translate(50 50)" stroke-width="0" style="transition: all 0.3s ease 0s;"></path>
              </svg>