<svg xmlns="http://www.w3.org/2000/svg" xmlns:xlink="http://www.w3.org/1999/xlink" width="24" height="32" viewBox="0 0 24 32">
    <defs>
        <path id="upda4z9n0a" d="M717.483 1969.432l-4.905-2.468c1.953-1.524 3.21-3.901 3.21-6.583 0-4.617-3.74-8.381-8.327-8.381-4.588 0-8.327 3.764-8.327 8.38 0 3.247 1.847 6.066 4.542 7.452v4.968l-2.786-.594-.151-.03c-.152-.031-.303-.046-.485-.046-.802 0-1.56.32-2.134.899l-2.12 2.163 7.706 7.757c.651.67 1.56 1.051 2.498 1.051h9.538c1.484 0 2.74-1.067 2.983-2.545l1.21-7.177c.334-1.98-.65-3.931-2.452-4.846zm-.53 4.343l-1.21 7.177h-9.539c-.136 0-.257-.06-.363-.152l-5.572-5.608 6.435 1.357v-16.168c0-.427.333-.762.757-.762s.757.335.757.762v9.143h2.664l5.239 2.636c.605.305.938.96.832 1.615zm-14.791-13.394c0-2.941 2.377-5.333 5.299-5.333 2.922 0 5.299 2.392 5.299 5.333 0 1.448-.576 2.758-1.514 3.718v-3.718c0-2.103-1.696-3.81-3.785-3.81-2.09 0-3.785 1.707-3.785 3.81v3.718c-.939-.96-1.514-2.27-1.514-3.718z"/>
    </defs>
    <g fill="none" fill-rule="evenodd">
        <g transform="translate(-696.000000, -1952.000000)">
            <use fill="#196AE5" fill-rule="nonzero" xlink:href="#upda4z9n0a"/>
        </g>
    </g>
</svg>
